# xmcd CD database file
#
# Track frame offsets:
#	150
#	18706
#	34225
#	54993
#	71169
#	88269
#	106694
#	122975
#	138926
#	158172
#	175013
#	193579
#	209903
#	228341
#	244340
#
# Disc length: 3338 seconds
#
# Revision: 0
# Processed by: cddbd v1.4PL0 Copyright (c) Steve Scherf et al.
# Submitted via: CDex 1.51
#
DISCID=d90d080f
DTITLE=Marcus Malone - Blue Radio
DYEAR=2003
DGENRE=Blues
TTITLE0=Runnin
TTITLE1=Hear My Train
TTITLE2=Blue Radio
TTITLE3=Bended Knee
TTITLE4=Double D
TTITLE5=Let Me Love You
TTITLE6=Supernatural Thing
TTITLE7=Candy
TTITLE8=Walk Away
TTITLE9=Keep On Pushin
TTITLE10=Mama Said
TTITLE11=Pay The Bills
TTITLE12=Mama Said Reprise
TTITLE13=Bonus Track 1
TTITLE14=Bonus Track 2
EXTD=YEAR: 2003
EXTT0=
EXTT1=
EXTT2=
EXTT3=
EXTT4=
EXTT5=
EXTT6=
EXTT7=
EXTT8=
EXTT9=
EXTT10=
EXTT11=
EXTT12=
EXTT13=
EXTT14=
PLAYORDER=
